<svg width="12" height="13" viewBox="0 0 12 13" fill="none" xmlns="http://www.w3.org/2000/svg">
<path d="M5.99967 9.14999L4.14967 10.5625C4.058 10.6375 3.958 10.6728 3.84967 10.6685C3.74133 10.6645 3.6455 10.6333 3.56217 10.575C3.47883 10.5167 3.41433 10.4375 3.36867 10.3375C3.32267 10.2375 3.3205 10.1292 3.36217 10.0125L4.07467 7.69999L2.26217 6.41249C2.16217 6.34582 2.09967 6.25832 2.07467 6.14999C2.04967 6.04165 2.05383 5.94165 2.08717 5.84999C2.1205 5.75832 2.17883 5.67699 2.26217 5.60599C2.3455 5.53532 2.4455 5.49999 2.56217 5.49999H4.79967L5.52467 3.09999C5.56633 2.98332 5.631 2.89365 5.71867 2.83099C5.806 2.76865 5.89967 2.73749 5.99967 2.73749C6.09967 2.73749 6.19333 2.76865 6.28067 2.83099C6.36833 2.89365 6.433 2.98332 6.47467 3.09999L7.19967 5.49999H9.43717C9.55383 5.49999 9.65383 5.53532 9.73717 5.60599C9.8205 5.67699 9.87883 5.75832 9.91217 5.84999C9.9455 5.94165 9.94967 6.04165 9.92467 6.14999C9.89967 6.25832 9.83717 6.34582 9.73717 6.41249L7.92467 7.69999L8.63717 10.0125C8.67883 10.1292 8.67683 10.2375 8.63117 10.3375C8.58517 10.4375 8.5205 10.5167 8.43717 10.575C8.35383 10.6333 8.258 10.6645 8.14967 10.6685C8.04133 10.6728 7.94133 10.6375 7.84967 10.5625L5.99967 9.14999Z" fill="#E1D036"/>
</svg>
