<svg width="12" height="13" viewBox="0 0 12 13" fill="none" xmlns="http://www.w3.org/2000/svg">
<path d="M6.00003 9.15L4.15003 10.5625C4.05837 10.6375 3.95837 10.6728 3.85003 10.6685C3.7417 10.6645 3.64587 10.6333 3.56253 10.575C3.4792 10.5167 3.4147 10.4375 3.36903 10.3375C3.32303 10.2375 3.32086 10.1292 3.36253 10.0125L4.07503 7.7L2.26253 6.4125C2.16253 6.34584 2.10003 6.25834 2.07503 6.15C2.05003 6.04167 2.0542 5.94167 2.08753 5.85C2.12086 5.75834 2.1792 5.677 2.26253 5.606C2.34586 5.53534 2.44586 5.5 2.56253 5.5H4.80003L5.52503 3.1C5.5667 2.98334 5.63137 2.89367 5.71903 2.831C5.80637 2.76867 5.90003 2.7375 6.00003 2.7375C6.10003 2.7375 6.1937 2.76867 6.28103 2.831C6.3687 2.89367 6.43337 2.98334 6.47503 3.1L7.20003 5.5H9.43753C9.5542 5.5 9.6542 5.53534 9.73753 5.606C9.82087 5.677 9.8792 5.75834 9.91253 5.85C9.94587 5.94167 9.95003 6.04167 9.92503 6.15C9.90003 6.25834 9.83753 6.34584 9.73753 6.4125L7.92503 7.7L8.63753 10.0125C8.6792 10.1292 8.6772 10.2375 8.63153 10.3375C8.58553 10.4375 8.52087 10.5167 8.43753 10.575C8.3542 10.6333 8.25837 10.6645 8.15003 10.6685C8.0417 10.6728 7.9417 10.6375 7.85003 10.5625L6.00003 9.15Z" fill="#E1D036"/>
</svg>
