<svg width="12" height="13" viewBox="0 0 12 13" fill="none" xmlns="http://www.w3.org/2000/svg">
<path d="M6 9.15L4.15 10.5625C4.05833 10.6375 3.95833 10.6728 3.85 10.6685C3.74167 10.6645 3.64583 10.6333 3.5625 10.575C3.47917 10.5167 3.41467 10.4375 3.369 10.3375C3.323 10.2375 3.32083 10.1292 3.3625 10.0125L4.075 7.7L2.2625 6.4125C2.1625 6.34584 2.1 6.25834 2.075 6.15C2.05 6.04167 2.05417 5.94167 2.0875 5.85C2.12083 5.75834 2.17917 5.677 2.2625 5.606C2.34583 5.53534 2.44583 5.5 2.5625 5.5H4.8L5.525 3.1C5.56667 2.98334 5.63133 2.89367 5.719 2.831C5.80633 2.76867 5.9 2.7375 6 2.7375C6.1 2.7375 6.19367 2.76867 6.281 2.831C6.36867 2.89367 6.43334 2.98334 6.475 3.1L7.2 5.5H9.4375C9.55417 5.5 9.65417 5.53534 9.7375 5.606C9.82084 5.677 9.87917 5.75834 9.9125 5.85C9.94584 5.94167 9.95 6.04167 9.925 6.15C9.9 6.25834 9.8375 6.34584 9.7375 6.4125L7.925 7.7L8.6375 10.0125C8.67917 10.1292 8.67717 10.2375 8.6315 10.3375C8.5855 10.4375 8.52084 10.5167 8.4375 10.575C8.35417 10.6333 8.25834 10.6645 8.15 10.6685C8.04167 10.6728 7.94167 10.6375 7.85 10.5625L6 9.15Z" fill="#E1D036"/>
</svg>
