<svg width="12" height="13" viewBox="0 0 12 13" fill="none" xmlns="http://www.w3.org/2000/svg">
<path d="M6.00015 9.15L4.15015 10.5625C4.05849 10.6375 3.95849 10.6728 3.85015 10.6685C3.74182 10.6645 3.64599 10.6333 3.56265 10.575C3.47932 10.5167 3.41482 10.4375 3.36915 10.3375C3.32315 10.2375 3.32099 10.1292 3.36265 10.0125L4.07515 7.7L2.26265 6.4125C2.16265 6.34584 2.10015 6.25834 2.07515 6.15C2.05015 6.04167 2.05432 5.94167 2.08765 5.85C2.12099 5.75834 2.17932 5.677 2.26265 5.606C2.34599 5.53534 2.44599 5.5 2.56265 5.5H4.80015L5.52515 3.1C5.56682 2.98334 5.63149 2.89367 5.71915 2.831C5.80649 2.76867 5.90015 2.7375 6.00015 2.7375C6.10015 2.7375 6.19382 2.76867 6.28115 2.831C6.36882 2.89367 6.43349 2.98334 6.47515 3.1L7.20015 5.5H9.43766C9.55432 5.5 9.65432 5.53534 9.73766 5.606C9.82099 5.677 9.87932 5.75834 9.91266 5.85C9.94599 5.94167 9.95016 6.04167 9.92516 6.15C9.90016 6.25834 9.83766 6.34584 9.73766 6.4125L7.92516 7.7L8.63765 10.0125C8.67932 10.1292 8.67732 10.2375 8.63166 10.3375C8.58566 10.4375 8.52099 10.5167 8.43766 10.575C8.35432 10.6333 8.25849 10.6645 8.15015 10.6685C8.04182 10.6728 7.94182 10.6375 7.85015 10.5625L6.00015 9.15Z" fill="#E1D036"/>
</svg>
