<svg width="169" height="165" viewBox="0 0 169 165" fill="none" xmlns="http://www.w3.org/2000/svg">
<path d="M52.1302 25.5335L59.0407 22.0912C90.6089 6.3664 128.96 18.4997 145.739 49.5204C163.337 82.055 150.479 122.698 117.37 139.19L110.459 142.632C78.8911 158.357 40.5401 146.223 23.761 115.203C6.16304 82.6681 19.0213 42.0256 52.1302 25.5335Z" stroke="#EFEFEF" stroke-width="30"/>
<path d="M52.1302 25.5335L59.0407 22.0912C90.6089 6.3664 128.96 18.4997 145.739 49.5204C163.337 82.055 150.479 122.698 117.37 139.19L110.459 142.632C78.8911 158.357 40.5401 146.223 23.761 115.203C6.16304 82.6681 19.0213 42.0256 52.1302 25.5335Z" stroke="#EFEFEF" stroke-width="30"/>
<path d="M52.1302 25.5335L59.0407 22.0912C90.6089 6.3664 128.96 18.4997 145.739 49.5204C163.337 82.055 150.479 122.698 117.37 139.19L110.459 142.632C78.8911 158.357 40.5401 146.223 23.761 115.203C6.16304 82.6681 19.0213 42.0256 52.1302 25.5335Z" stroke="#EFEFEF" stroke-width="30"/>
<path d="M52.1302 25.5335L59.0407 22.0912C90.6089 6.3664 128.96 18.4997 145.739 49.5204C163.337 82.055 150.479 122.698 117.37 139.19L110.459 142.632C78.8911 158.357 40.5401 146.223 23.761 115.203C6.16304 82.6681 19.0213 42.0256 52.1302 25.5335Z" stroke="#EFEFEF" stroke-width="30"/>
<path d="M52.1302 25.5335L59.0407 22.0912C90.6089 6.3664 128.96 18.4997 145.739 49.5204C163.337 82.055 150.479 122.698 117.37 139.19L110.459 142.632C78.8911 158.357 40.5401 146.223 23.761 115.203C6.16304 82.6681 19.0213 42.0256 52.1302 25.5335Z" stroke="#EFEFEF" stroke-width="30"/>
<path d="M52.1302 25.5335L59.0407 22.0912C90.6089 6.3664 128.96 18.4997 145.739 49.5204C163.337 82.055 150.479 122.698 117.37 139.19L110.459 142.632C78.8911 158.357 40.5401 146.223 23.761 115.203C6.16304 82.6681 19.0213 42.0256 52.1302 25.5335Z" stroke="#3652E1" stroke-width="30"/>
</svg>
