<svg width="169" height="165" viewBox="0 0 169 165" fill="none" xmlns="http://www.w3.org/2000/svg">
<path d="M52.1302 25.5333L59.0407 22.0911C90.6089 6.36627 128.96 18.4996 145.739 49.5203C163.337 82.0549 150.479 122.697 117.37 139.19L110.459 142.632C78.8911 158.357 40.5401 146.223 23.761 115.203C6.16304 82.668 19.0213 42.0255 52.1302 25.5333Z" stroke="#EFEFEF" stroke-width="30"/>
<path d="M52.1302 25.5333L59.0407 22.0911C90.6089 6.36627 128.96 18.4996 145.739 49.5203C163.337 82.0549 150.479 122.697 117.37 139.19L110.459 142.632C78.8911 158.357 40.5401 146.223 23.761 115.203C6.16304 82.668 19.0213 42.0255 52.1302 25.5333Z" stroke="#EFEFEF" stroke-width="30"/>
<path d="M52.1302 25.5333L59.0407 22.0911C90.6089 6.36627 128.96 18.4996 145.739 49.5203C163.337 82.0549 150.479 122.697 117.37 139.19L110.459 142.632C78.8911 158.357 40.5401 146.223 23.761 115.203C6.16304 82.668 19.0213 42.0255 52.1302 25.5333Z" stroke="#EFEFEF" stroke-width="30"/>
<path d="M52.1302 25.5333L59.0407 22.0911C90.6089 6.36627 128.96 18.4996 145.739 49.5203C163.337 82.0549 150.479 122.697 117.37 139.19L110.459 142.632C78.8911 158.357 40.5401 146.223 23.761 115.203C6.16304 82.668 19.0213 42.0255 52.1302 25.5333Z" stroke="#EFEFEF" stroke-width="30"/>
<path d="M52.1302 25.5333L59.0407 22.0911C90.6089 6.36627 128.96 18.4996 145.739 49.5203C163.337 82.0549 150.479 122.697 117.37 139.19L110.459 142.632C78.8911 158.357 40.5401 146.223 23.761 115.203C6.16304 82.668 19.0213 42.0255 52.1302 25.5333Z" stroke="#EFEFEF" stroke-width="30"/>
<path d="M52.1302 25.5333L59.0407 22.0911C90.6089 6.36627 128.96 18.4996 145.739 49.5203C163.337 82.0549 150.479 122.697 117.37 139.19L110.459 142.632C78.8911 158.357 40.5401 146.223 23.761 115.203C6.16304 82.668 19.0213 42.0255 52.1302 25.5333Z" stroke="#3652E1" stroke-width="30"/>
</svg>
