<svg width="8" height="9" viewBox="0 0 8 9" fill="none" xmlns="http://www.w3.org/2000/svg">
<path d="M3.99942 6.65005L2.14942 8.06255C2.05775 8.13755 1.95775 8.17288 1.84942 8.16855C1.74109 8.16455 1.64525 8.13338 1.56192 8.07505C1.47859 8.01672 1.41409 7.93755 1.36842 7.83755C1.32242 7.73755 1.32025 7.62922 1.36192 7.51255L2.07442 5.20005L0.261921 3.91255C0.161921 3.84588 0.099421 3.75838 0.074421 3.65005C0.049421 3.54172 0.0535877 3.44172 0.0869211 3.35005C0.120254 3.25838 0.178588 3.17705 0.261921 3.10605C0.345254 3.03538 0.445254 3.00005 0.561921 3.00005H2.79942L3.52442 0.600049C3.56609 0.483382 3.63075 0.393716 3.71842 0.331049C3.80575 0.268716 3.89942 0.237549 3.99942 0.237549C4.09942 0.237549 4.19309 0.268716 4.28042 0.331049C4.36809 0.393716 4.43276 0.483382 4.47442 0.600049L5.19942 3.00005H7.43692C7.55359 3.00005 7.65359 3.03538 7.73692 3.10605C7.82026 3.17705 7.87859 3.25838 7.91192 3.35005C7.94526 3.44172 7.94942 3.54172 7.92442 3.65005C7.89942 3.75838 7.83692 3.84588 7.73692 3.91255L5.92442 5.20005L6.63692 7.51255C6.67859 7.62922 6.67659 7.73755 6.63092 7.83755C6.58492 7.93755 6.52026 8.01672 6.43692 8.07505C6.35359 8.13338 6.25776 8.16455 6.14942 8.16855C6.04109 8.17288 5.94109 8.13755 5.84942 8.06255L3.99942 6.65005Z" fill="#E1D036"/>
</svg>
