<svg width="8" height="9" viewBox="0 0 8 9" fill="none" xmlns="http://www.w3.org/2000/svg">
<path d="M3.99967 6.64999L2.14967 8.06249C2.058 8.13749 1.958 8.17282 1.84967 8.16849C1.74133 8.16449 1.6455 8.13332 1.56217 8.07499C1.47883 8.01666 1.41433 7.93749 1.36867 7.83749C1.32267 7.73749 1.3205 7.62915 1.36217 7.51249L2.07467 5.19999L0.262165 3.91249C0.162165 3.84582 0.0996652 3.75832 0.0746652 3.64999C0.0496652 3.54165 0.0538319 3.44165 0.0871652 3.34999C0.120499 3.25832 0.178832 3.17699 0.262165 3.10599C0.345499 3.03532 0.445499 2.99999 0.562165 2.99999H2.79967L3.52467 0.599988C3.56633 0.483321 3.631 0.393655 3.71867 0.330988C3.806 0.268655 3.89967 0.237488 3.99967 0.237488C4.09967 0.237488 4.19333 0.268655 4.28067 0.330988C4.36833 0.393655 4.433 0.483321 4.47467 0.599988L5.19967 2.99999H7.43717C7.55383 2.99999 7.65383 3.03532 7.73717 3.10599C7.8205 3.17699 7.87883 3.25832 7.91217 3.34999C7.9455 3.44165 7.94967 3.54165 7.92467 3.64999C7.89967 3.75832 7.83717 3.84582 7.73717 3.91249L5.92467 5.19999L6.63717 7.51249C6.67883 7.62915 6.67683 7.73749 6.63117 7.83749C6.58517 7.93749 6.5205 8.01666 6.43717 8.07499C6.35383 8.13332 6.258 8.16449 6.14967 8.16849C6.04133 8.17282 5.94133 8.13749 5.84967 8.06249L3.99967 6.64999Z" fill="#E1D036"/>
</svg>
