<svg width="8" height="9" viewBox="0 0 8 9" fill="none" xmlns="http://www.w3.org/2000/svg">
<path d="M4.00015 6.64999L2.15015 8.06249C2.05849 8.13749 1.95849 8.17282 1.85015 8.16849C1.74182 8.16449 1.64599 8.13332 1.56265 8.07499C1.47932 8.01666 1.41482 7.93749 1.36915 7.83749C1.32315 7.73749 1.32099 7.62915 1.36265 7.51249L2.07515 5.19999L0.262653 3.91249C0.162653 3.84582 0.100153 3.75832 0.0751534 3.64999C0.0501534 3.54165 0.0543202 3.44165 0.0876535 3.34999C0.120987 3.25832 0.17932 3.17699 0.262653 3.10599C0.345987 3.03532 0.445987 2.99999 0.562654 2.99999H2.80015L3.52515 0.599988C3.56682 0.483321 3.63149 0.393655 3.71915 0.330988C3.80649 0.268655 3.90015 0.237488 4.00015 0.237488C4.10015 0.237488 4.19382 0.268655 4.28115 0.330988C4.36882 0.393655 4.43349 0.483321 4.47515 0.599988L5.20015 2.99999H7.43766C7.55432 2.99999 7.65432 3.03532 7.73766 3.10599C7.82099 3.17699 7.87932 3.25832 7.91266 3.34999C7.94599 3.44165 7.95016 3.54165 7.92516 3.64999C7.90016 3.75832 7.83766 3.84582 7.73766 3.91249L5.92516 5.19999L6.63765 7.51249C6.67932 7.62915 6.67732 7.73749 6.63166 7.83749C6.58566 7.93749 6.52099 8.01666 6.43766 8.07499C6.35432 8.13332 6.25849 8.16449 6.15015 8.16849C6.04182 8.17282 5.94182 8.13749 5.85015 8.06249L4.00015 6.64999Z" fill="#E1D036"/>
</svg>
