<svg width="8" height="9" viewBox="0 0 8 9" fill="none" xmlns="http://www.w3.org/2000/svg">
<path d="M4.00003 6.64999L2.15003 8.06249C2.05836 8.13749 1.95836 8.17282 1.85003 8.16849C1.74169 8.16449 1.64586 8.13332 1.56253 8.07499C1.47919 8.01666 1.41469 7.93749 1.36903 7.83749C1.32303 7.73749 1.32086 7.62915 1.36253 7.51249L2.07503 5.19999L0.262528 3.91249C0.162528 3.84582 0.100028 3.75832 0.0750276 3.64999C0.0500276 3.54165 0.0541943 3.44165 0.0875276 3.34999C0.120861 3.25832 0.179194 3.17699 0.262528 3.10599C0.345861 3.03532 0.445861 2.99999 0.562528 2.99999H2.80003L3.52503 0.599988C3.5667 0.483321 3.63136 0.393655 3.71903 0.330988C3.80636 0.268655 3.90003 0.237488 4.00003 0.237488C4.10003 0.237488 4.1937 0.268655 4.28103 0.330988C4.3687 0.393655 4.43336 0.483321 4.47503 0.599988L5.20003 2.99999H7.43753C7.5542 2.99999 7.6542 3.03532 7.73753 3.10599C7.82086 3.17699 7.8792 3.25832 7.91253 3.34999C7.94586 3.44165 7.95003 3.54165 7.92503 3.64999C7.90003 3.75832 7.83753 3.84582 7.73753 3.91249L5.92503 5.19999L6.63753 7.51249C6.6792 7.62915 6.6772 7.73749 6.63153 7.83749C6.58553 7.93749 6.52086 8.01666 6.43753 8.07499C6.3542 8.13332 6.25836 8.16449 6.15003 8.16849C6.0417 8.17282 5.9417 8.13749 5.85003 8.06249L4.00003 6.64999Z" fill="#E1D036"/>
</svg>
