<svg width="8" height="9" viewBox="0 0 8 9" fill="none" xmlns="http://www.w3.org/2000/svg">
<path d="M3.99923 6.64999L2.14923 8.06249C2.05757 8.13749 1.95757 8.17282 1.84923 8.16849C1.7409 8.16449 1.64507 8.13332 1.56173 8.07499C1.4784 8.01666 1.4139 7.93749 1.36823 7.83749C1.32223 7.73749 1.32007 7.62915 1.36173 7.51249L2.07423 5.19999L0.261734 3.91249C0.161734 3.84582 0.0992341 3.75832 0.0742341 3.64999C0.0492341 3.54165 0.0534008 3.44165 0.0867342 3.34999C0.120067 3.25832 0.178401 3.17699 0.261734 3.10599C0.345068 3.03532 0.445068 2.99999 0.561734 2.99999H2.79923L3.52423 0.599988C3.5659 0.483321 3.63057 0.393655 3.71823 0.330988C3.80557 0.268655 3.89923 0.237488 3.99923 0.237488C4.09923 0.237488 4.1929 0.268655 4.28024 0.330988C4.3679 0.393655 4.43257 0.483321 4.47424 0.599988L5.19924 2.99999H7.43674C7.5534 2.99999 7.6534 3.03532 7.73674 3.10599C7.82007 3.17699 7.8784 3.25832 7.91174 3.34999C7.94507 3.44165 7.94924 3.54165 7.92424 3.64999C7.89924 3.75832 7.83674 3.84582 7.73674 3.91249L5.92424 5.19999L6.63674 7.51249C6.6784 7.62915 6.6764 7.73749 6.63074 7.83749C6.58474 7.93749 6.52007 8.01666 6.43674 8.07499C6.3534 8.13332 6.25757 8.16449 6.14924 8.16849C6.0409 8.17282 5.9409 8.13749 5.84924 8.06249L3.99923 6.64999Z" fill="#E1D036"/>
</svg>
