<svg width="8" height="9" viewBox="0 0 8 9" fill="none" xmlns="http://www.w3.org/2000/svg">
<path d="M3.99918 6.65005L2.14918 8.06255C2.05751 8.13755 1.95751 8.17288 1.84918 8.16855C1.74084 8.16455 1.64501 8.13338 1.56168 8.07505C1.47834 8.01672 1.41384 7.93755 1.36818 7.83755C1.32218 7.73755 1.32001 7.62922 1.36168 7.51255L2.07418 5.20005L0.261677 3.91255C0.161677 3.84588 0.0991769 3.75838 0.0741769 3.65005C0.0491769 3.54172 0.0533436 3.44172 0.0866769 3.35005C0.12001 3.25838 0.178344 3.17705 0.261677 3.10605C0.34501 3.03538 0.44501 3.00005 0.561677 3.00005H2.79918L3.52418 0.600049C3.56584 0.483382 3.63051 0.393716 3.71818 0.331049C3.80551 0.268716 3.89918 0.237549 3.99918 0.237549C4.09918 0.237549 4.19284 0.268716 4.28018 0.331049C4.36784 0.393716 4.43251 0.483382 4.47418 0.600049L5.19918 3.00005H7.43668C7.55335 3.00005 7.65335 3.03538 7.73668 3.10605C7.82001 3.17705 7.87835 3.25838 7.91168 3.35005C7.94501 3.44172 7.94918 3.54172 7.92418 3.65005C7.89918 3.75838 7.83668 3.84588 7.73668 3.91255L5.92418 5.20005L6.63668 7.51255C6.67835 7.62922 6.67635 7.73755 6.63068 7.83755C6.58468 7.93755 6.52001 8.01672 6.43668 8.07505C6.35335 8.13338 6.25751 8.16455 6.14918 8.16855C6.04084 8.17288 5.94084 8.13755 5.84918 8.06255L3.99918 6.65005Z" fill="#E1D036"/>
</svg>
