<svg width="8" height="9" viewBox="0 0 8 9" fill="none" xmlns="http://www.w3.org/2000/svg">
<path d="M4.00003 6.65005L2.15003 8.06255C2.05837 8.13755 1.95837 8.17288 1.85003 8.16855C1.7417 8.16455 1.64587 8.13338 1.56253 8.07505C1.4792 8.01672 1.4147 7.93755 1.36903 7.83755C1.32303 7.73755 1.32086 7.62922 1.36253 7.51255L2.07503 5.20005L0.262531 3.91255C0.162531 3.84588 0.100031 3.75838 0.0750314 3.65005C0.0500314 3.54172 0.0541981 3.44172 0.0875314 3.35005C0.120865 3.25838 0.179198 3.17705 0.262531 3.10605C0.345865 3.03538 0.445865 3.00005 0.562531 3.00005H2.80003L3.52503 0.600049C3.5667 0.483382 3.63137 0.393716 3.71903 0.331049C3.80637 0.268716 3.90003 0.237549 4.00003 0.237549C4.10003 0.237549 4.1937 0.268716 4.28103 0.331049C4.3687 0.393716 4.43337 0.483382 4.47503 0.600049L5.20003 3.00005H7.43753C7.5542 3.00005 7.6542 3.03538 7.73753 3.10605C7.82087 3.17705 7.8792 3.25838 7.91253 3.35005C7.94587 3.44172 7.95003 3.54172 7.92503 3.65005C7.90003 3.75838 7.83753 3.84588 7.73753 3.91255L5.92503 5.20005L6.63753 7.51255C6.6792 7.62922 6.6772 7.73755 6.63153 7.83755C6.58553 7.93755 6.52087 8.01672 6.43753 8.07505C6.3542 8.13338 6.25837 8.16455 6.15003 8.16855C6.0417 8.17288 5.9417 8.13755 5.85003 8.06255L4.00003 6.65005Z" fill="#E1D036"/>
</svg>
